<?xml version="1.0" encoding="UTF-8" standalone="no"?>
<svg width="135.27501mm" height="135.27501mm" viewBox="0 0 135.27501 135.27501" version="1.1" xml:space="preserve" xmlns="http://www.w3.org/2000/svg" xmlns:svg="http://www.w3.org/2000/svg">
    <style>
      rect {fill-opacity:1}      
      [aria-label="NEWS"] {fill:#fff}
      [aria-label="F"],[aria-label="E"] {fill:#000}
    </style>
    <g id="layer1" transform="translate(-0.3225728,-0.32257405)">
        <rect style="fill:#f7df1e" width="135.27501" height="135.27501" x="0.3225728" y="0.32257405" />
        <rect style="fill:#3178c6" width="80.039291" height="29.142565" x="47.587837" y="35.379295" />
        <g aria-label="NEWS">
            <path d="m 68.515798,59.179814 h 0.363196 V 41.38319 h -3.39848 v 7.393641 c 0,1.219303 0.233483,3.216883 0.233483,3.216883 0,0 -1.219302,-1.608441 -2.075408,-2.412662 l -8.898312,-8.353517 h -0.363196 v 17.796623 h 3.398481 v -7.393641 c 0,-1.271187 -0.259427,-3.216882 -0.259427,-3.216882 0,0 1.219303,1.582499 2.101351,2.412662 z" />
            <path d="m 72.562799,59.024158 h 12.037367 v -3.190939 h -8.405403 v -2.542375 h 7.08233 v -3.113112 h -7.08233 V 44.57413 H 84.23697 V 41.38319 H 72.562799 Z" />
            <path d="m 92.823934,59.179814 h 0.363196 l 4.124874,-8.509173 c 0.466966,-0.985819 1.011761,-2.620202 1.011761,-2.620202 0,0 0.518852,1.634383 0.985819,2.620202 l 3.969216,8.509173 h 0.3632 l 6.40782,-17.796624 h -3.52819 l -2.54238,7.08233 c -0.44102,1.219302 -0.93393,3.19094 -0.93393,3.19094 0,0 -0.51885,-1.99758 -1.08959,-3.19094 l -3.450367,-7.237985 h -0.363196 l -3.398481,7.237985 c -0.570737,1.19336 -1.089589,3.19094 -1.089589,3.19094 0,0 -0.492909,-1.971638 -0.933934,-3.19094 l -2.568317,-7.08233 h -3.839505 z" />
            <path d="m 117.26181,59.257642 c 3.45037,0 6.01868,-1.79004 6.01868,-5.058807 0,-3.035284 -1.73815,-4.3843 -4.82532,-5.707372 l -0.90799,-0.389139 c -1.55656,-0.674508 -2.23106,-1.115532 -2.23106,-2.205121 0,-0.882049 0.6745,-1.556556 1.73815,-1.556556 1.0377,0 1.71221,0.441024 2.33483,1.556556 l 2.82775,-1.815982 c -1.19336,-2.101351 -2.85369,-2.905571 -5.16258,-2.905571 -3.24283,0 -5.31823,2.075408 -5.31823,4.799381 0,2.957456 1.73815,4.358356 4.35835,5.473888 l 0.90799,0.389139 c 1.66033,0.726393 2.64615,1.167417 2.64615,2.412662 0,1.037704 -0.95988,1.790039 -2.46455,1.790039 -1.79004,0 -2.8018,-0.933933 -3.58008,-2.205121 l -2.95745,1.712212 c 1.06364,2.101351 3.24282,3.709792 6.61536,3.709792 z" />
        </g>
        <g aria-label="F">
            <path d="M 47.533363,128.73814 H 59.880578 V 110.4819 H 83.78126 V 99.457604 H 59.880578 V 79.613865 H 86.162509 V 68.765954 H 47.533363 Z" />
        </g>
        <g aria-label="E">
            <path d="m 88.215164,128.61005 h 40.922196 v -10.84791 h -28.57498 v -8.64306 h 24.07707 V 98.535757 h -24.07707 v -19.04999 h 27.34026 V 68.637856 H 88.215164 Z" />
        </g>
    </g>
</svg>
